Format                                   : AVI
Format/Info                              : Audio Video Interleave
File size                                : 175 MiB
Duration                                 : 21mn 41s
Overall bit rate mode                    : Variable
Overall bit rate                         : 1 130 Kbps
Writing application                      : Nandub v1.0rc2
Writing library                          : Nandub build 1853/release

Video
ID                                       : 0
Format                                   : MPEG-4 Visual
Format profile                           : Advanced Simple@L5
Format settings, BVOP                    : 2
Format settings, QPel                    : No
Format settings, GMC                     : No warppoints
Format settings, Matrix                  : Default (H.263)
Muxing mode                              : Packed bitstream
Codec ID                                 : XVID
Codec ID/Hint                            : XviD
Duration                                 : 21mn 41s
Bit rate                                 : 983 Kbps
Width                                    : 624 pixels
Height                                   : 352 pixels
Display aspect ratio                     : 16:9
Frame rate                               : 23.976 fps
Color space                              : YUV
Chroma subsampling                       : 4:2:0
Bit depth                                : 8 bits
Scan type                                : Progressive
Compression mode                         : Lossy
Bits/(Pixel*Frame)                       : 0.187
Stream size                              : 153 MiB (87%)
Writing library                          : XviD 1.2.0SMP (UTC 2006-01-08)

Audio
ID                                       : 1
Format                                   : MPEG Audio
Format version                           : Version 1
Format profile                           : Layer 3
Mode                                     : Joint stereo
Mode extension                           : MS Stereo
Codec ID                                 : 55
Codec ID/Hint                            : MP3
Duration                                 : 21mn 41s
Bit rate mode                            : Variable
Bit rate                                 : 134 Kbps
Channel(s)                               : 2 channels
Sampling rate                            : 48.0 KHz
Compression mode                         : Lossy
Delay relative to video                  : 8ms
Stream size                              : 20.8 MiB (12%)
Alignment                                : Aligned on interleaves
Interleave, duration                     : 24 ms (0.58 video frame)
Interleave, preload duration             : 366 ms
Writing library                          : LAME3.96.1┌╛┌╛┌╛┌╛┌╛┌╛┌╛┌╛┌╛┌╛